<svg width="222" height="85" viewBox="0 0 222 85" fill="none" xmlns="http://www.w3.org/2000/svg">
<g clip-path="url(#clip0_45_311)">
<path d="M56.2451 1.34905C57.3554 1.34905 57.9082 2.24353 57.9082 4.03249V36.9767C57.9082 38.6728 57.3554 39.6602 56.2451 39.6602H50.1505C49.0989 39.6602 48.4875 38.6777 48.4875 36.9767V4.0276C48.4875 2.23864 49.0989 1.34416 50.1505 1.34416H56.2451V1.34905Z" fill="white"/>
<path d="M34.9875 14.6196C33.8772 14.8396 33.3245 14.341 33.1582 13.2363C32.7717 10.9684 30.9424 9.52645 28.3353 9.52645C26.1734 9.52645 24.8429 10.8022 25.063 12.073C25.8408 16.3939 43.3516 16.2815 43.3516 29.0193C43.3516 30.6811 41.4685 40.4862 28.3304 40.4862C16.6891 40.4862 14.1995 32.8416 13.9207 28.5207C13.8668 27.5236 14.3658 26.9126 15.3636 26.6926L21.6245 25.3094C22.7348 25.0894 23.3413 25.588 23.4538 26.7513C23.6739 29.4103 25.7283 30.9597 28.3304 30.9597C30.9326 30.9597 33.0408 29.3516 32.7082 27.856C31.6565 23.1489 14.9723 24.1998 14.9723 11.462C14.9185 9.80017 15.9163 -0.00489044 28.3304 -0.00489044C39.7467 -0.00489044 42.4076 7.41978 42.7402 11.4034C42.794 12.4005 42.2951 13.0115 41.2973 13.2315L34.9777 14.6147L34.9875 14.6196Z" fill="white"/>
<path d="M77.5027 0.884705C87.9212 0.884705 91.3598 5.09316 91.3598 14.1748V26.3065C91.3598 35.3882 87.9212 39.6553 77.5027 39.6553H65.1424C64.0907 39.6553 63.4793 39.0443 63.4793 37.9934V2.60523C63.4793 1.50058 64.0321 0.943359 65.1424 0.889593H77.5027V0.884705ZM77.669 30.1288C80.3299 30.1288 81.6603 29.684 81.6603 26.3603V14.1748C81.6603 10.7435 80.3299 10.4063 77.669 10.4063H74.6755C73.6239 10.4063 73.0125 10.9635 73.0125 12.0681V28.462C73.0125 29.5129 73.6239 30.1239 74.6755 30.1239H77.669V30.1288Z" fill="white"/>
<path d="M121.872 0.884705C122.982 0.884705 123.535 1.43703 123.535 2.54658V8.74928C123.535 9.80017 122.982 10.4112 121.872 10.4112H108.46C107.408 10.4112 106.797 10.9684 106.797 12.073V13.8473C106.797 14.8982 107.408 15.5092 108.46 15.5092H117.049C118.159 15.5092 118.712 16.0615 118.712 17.1711V23.3738C118.712 24.4247 118.159 25.0357 117.049 25.0357H108.46C107.408 25.0357 106.797 25.588 106.797 26.6975V28.4718C106.797 29.5227 107.408 30.1337 108.46 30.1337H121.872C122.982 30.1337 123.535 30.686 123.535 31.7956V37.9983C123.535 39.1078 122.982 39.6602 121.872 39.6602H98.594C97.5424 39.6602 96.931 39.0492 96.931 37.9983V2.54658C96.931 1.43703 97.5424 0.884705 98.594 0.884705H121.872Z" fill="white"/>
<path d="M1.66304 84.0029C0.552717 83.9491 0 83.3919 0 82.2872V46.8942C0 45.8433 0.611413 45.2323 1.66304 45.2323H15.3538C25.7723 45.2323 27.9734 47.8913 27.9734 54.7588C27.9734 58.1949 27.1614 61.6262 24.887 62.6771C27.1614 65.1699 27.7141 68.826 27.7141 70.7079C27.7141 79.7895 23.7228 83.998 13.3043 83.998H1.66304V84.0029ZM11.1424 53.0969C10.0908 53.0969 9.47935 53.6541 9.47935 54.7588V57.3053C9.47935 58.4149 10.0908 58.9672 11.1424 58.9672H14.7424C17.4033 58.9672 18.6212 58.5811 18.6212 55.9758C18.6212 53.3706 17.2908 53.0969 14.6299 53.0969H11.1375H11.1424ZM11.1962 66.9442C10.1446 66.9442 9.53315 67.4965 9.53315 68.6061V72.8145C9.53315 73.9192 10.1446 74.4764 11.1962 74.4764H14.1897C16.8505 74.4764 18.181 74.144 18.181 70.7079C18.181 67.2717 16.8505 66.9393 14.1897 66.9393H11.1962V66.9442Z" fill="white"/>
<path d="M40.8375 45.2323C41.9478 45.2323 42.5005 45.7846 42.5005 46.8942V72.8145C42.5005 73.8654 43.112 74.4764 44.1636 74.4764H56.5239C57.6342 74.4764 58.187 75.0288 58.187 76.1383V82.341C58.187 83.4505 57.6342 84.0029 56.5239 84.0029H34.6304C33.5788 84.0029 32.9674 83.3919 32.9674 82.341V46.8942C32.9674 45.7846 33.5788 45.2323 34.6304 45.2323H40.8375Z" fill="white"/>
<path d="M55.9125 45.2323C57.0228 45.2323 57.5755 45.7846 57.5755 46.8942V67.3108C57.5755 68.3617 57.0228 68.9727 55.9125 68.9727H49.8179C48.7663 68.9727 48.1549 68.3617 48.1549 67.3108V46.8942C48.1549 45.7846 48.7663 45.2323 49.8179 45.2323H55.9125Z" fill="white"/>
<path d="M72.8755 45.2323C73.8196 45.2323 74.4261 45.6185 74.8174 46.508L82.3549 64.95C82.575 65.4485 83.0201 65.3361 83.0201 64.7838V46.8942C83.0201 45.7846 83.6315 45.2323 84.6832 45.2323H90.8902C92.0006 45.2323 92.5533 45.7846 92.5533 46.8942V82.341C92.5533 83.3919 92.0006 84.0029 90.8902 84.0029H82.7413C81.7973 84.0029 81.1908 83.6167 80.7995 82.7271L73.262 64.2852C73.0418 63.7867 72.5967 63.8991 72.5967 64.4514V82.341C72.5967 83.3919 72.044 84.0029 70.9337 84.0029H64.7266C63.675 84.0029 63.0636 83.3919 63.0636 82.341V46.8942C63.0636 45.7846 63.675 45.2323 64.7266 45.2323H72.8755Z" fill="white"/>
<path d="M98.1783 57.6964C98.1783 54.0403 98.956 44.2401 112.089 44.2401C123.726 44.2401 125.667 51.8847 125.946 56.2007C126 57.1978 125.501 57.8088 124.503 58.0288L118.237 59.412C117.132 59.632 116.521 59.1334 116.408 57.9701C116.188 55.3111 115.244 53.7616 112.084 53.7616C107.985 53.7616 107.707 56.3669 107.707 60.6291V68.6061C107.707 72.8683 107.985 75.4736 112.084 75.4736C116.183 75.4736 116.462 72.8683 116.462 70.1556H113.248C112.197 70.1556 111.585 69.5495 111.585 68.4937V64.0653C111.585 62.9557 112.197 62.4034 113.248 62.4034H124.332C125.442 62.4034 125.995 62.9557 125.995 64.0653V71.5437C125.995 75.1998 125.217 85 112.084 85C98.9511 85 98.1734 75.1998 98.1734 71.5437V57.6964H98.1783Z" fill="white"/>
<path d="M32.2533 26.9175C32.2533 26.9175 30.556 25.3485 30.4679 23.7844C30.3799 22.2202 31.2701 20.314 31.6272 19.3559C31.9842 18.3979 31.5294 18.7987 30.9522 19.7714C30.4239 20.661 29.4408 22.9192 27.5674 23.1001C25.694 23.2809 24.3636 23.1294 22.6712 22.3131C20.9788 21.4968 28.5016 27.025 28.5016 27.025L32.2484 26.9224L32.2533 26.9175Z" fill="#009358"/>
<path d="M24.3734 29.2197C24.3734 29.2197 25.3712 30.119 25.2929 30.8571C25.0582 33.0029 24.5543 34.1075 24.1582 35.4273C23.762 36.747 24.2658 36.1947 24.9065 34.8554C25.4935 33.6334 26.4179 31.2041 28.4967 30.9549C30.5755 30.7056 30.1842 26.9713 32.0625 28.0955C33.9408 29.2197 27.6261 24.8744 27.6261 24.8744L24.3734 29.2197Z" fill="#009358"/>
</g>
<path d="M139.928 32.9812H142.508L145.962 41.413H146.099L149.553 32.9812H152.133V44.6176H150.11V36.6233H150.002L146.786 44.5835H145.275L142.059 36.6062H141.951V44.6176H139.928V32.9812Z" fill="#00D07D"/>
<path d="M164.826 38.7994C164.826 40.0532 164.591 41.1271 164.122 42.021C163.656 42.9112 163.019 43.593 162.212 44.0665C161.409 44.5399 160.498 44.7767 159.479 44.7767C158.461 44.7767 157.548 44.5399 156.741 44.0665C155.938 43.5892 155.301 42.9055 154.832 42.0153C154.366 41.1214 154.133 40.0494 154.133 38.7994C154.133 37.5456 154.366 36.4737 154.832 35.5835C155.301 34.6896 155.938 34.0058 156.741 33.5324C157.548 33.0589 158.461 32.8221 159.479 32.8221C160.498 32.8221 161.409 33.0589 162.212 33.5324C163.019 34.0058 163.656 34.6896 164.122 35.5835C164.591 36.4737 164.826 37.5456 164.826 38.7994ZM162.707 38.7994C162.707 37.9168 162.569 37.1725 162.292 36.5665C162.019 35.9566 161.64 35.4964 161.156 35.1858C160.671 34.8714 160.112 34.7142 159.479 34.7142C158.847 34.7142 158.288 34.8714 157.803 35.1858C157.319 35.4964 156.938 35.9566 156.661 36.5665C156.389 37.1725 156.252 37.9168 156.252 38.7994C156.252 39.682 156.389 40.4282 156.661 41.038C156.938 41.6441 157.319 42.1043 157.803 42.4187C158.288 42.7293 158.847 42.8846 159.479 42.8846C160.112 42.8846 160.671 42.7293 161.156 42.4187C161.64 42.1043 162.019 41.6441 162.292 41.038C162.569 40.4282 162.707 39.682 162.707 38.7994Z" fill="#00D07D"/>
<path d="M176.381 32.9812V44.6176H174.506L169.024 36.6915H168.927V44.6176H166.819V32.9812H168.705L174.183 40.913H174.285V32.9812H176.381Z" fill="#00D07D"/>
<path d="M178.678 44.6176V32.9812H186.247V34.7483H180.786V37.9074H185.854V39.6744H180.786V42.8505H186.292V44.6176H178.678Z" fill="#00D07D"/>
<path d="M187.886 34.7483V32.9812H197.17V34.7483H193.573V44.6176H191.482V34.7483H187.886Z" fill="#00D07D"/>
<path d="M201.068 32.9812V44.6176H198.96V32.9812H201.068Z" fill="#00D07D"/>
<path d="M203.134 44.6176V43.3051L209.1 34.7483H203.1V32.9812H211.714V34.2937L205.754 42.8505H211.748V44.6176H203.134Z" fill="#00D07D"/>
<path d="M213.788 44.6176V32.9812H221.356V34.7483H215.896V37.9074H220.964V39.6744H215.896V42.8505H221.401V44.6176H213.788Z" fill="#00D07D"/>
<path d="M139.133 52.9812H141.514L144.36 58.129H144.474L147.32 52.9812H149.701L145.468 60.2767V64.6176H143.366V60.2767L139.133 52.9812Z" fill="#00D07D"/>
<path d="M160.935 58.7994C160.935 60.0532 160.701 61.1271 160.231 62.021C159.765 62.9112 159.129 63.593 158.322 64.0665C157.519 64.5399 156.608 64.7767 155.589 64.7767C154.57 64.7767 153.657 64.5399 152.85 64.0665C152.047 63.5892 151.411 62.9055 150.941 62.0153C150.475 61.1214 150.242 60.0494 150.242 58.7994C150.242 57.5456 150.475 56.4737 150.941 55.5835C151.411 54.6896 152.047 54.0058 152.85 53.5324C153.657 53.0589 154.57 52.8221 155.589 52.8221C156.608 52.8221 157.519 53.0589 158.322 53.5324C159.129 54.0058 159.765 54.6896 160.231 55.5835C160.701 56.4737 160.935 57.5456 160.935 58.7994ZM158.816 58.7994C158.816 57.9168 158.678 57.1725 158.401 56.5665C158.129 55.9566 157.75 55.4964 157.265 55.1858C156.78 54.8714 156.221 54.7142 155.589 54.7142C154.956 54.7142 154.398 54.8714 153.913 55.1858C153.428 55.4964 153.047 55.9566 152.771 56.5665C152.498 57.1725 152.362 57.9168 152.362 58.7994C152.362 59.682 152.498 60.4282 152.771 61.038C153.047 61.6441 153.428 62.1043 153.913 62.4187C154.398 62.7293 154.956 62.8846 155.589 62.8846C156.221 62.8846 156.78 62.7293 157.265 62.4187C157.75 62.1043 158.129 61.6441 158.401 61.038C158.678 60.4282 158.816 59.682 158.816 58.7994Z" fill="#00D07D"/>
<path d="M170.264 52.9812H172.372V60.5835C172.372 61.4168 172.175 62.1498 171.781 62.7824C171.39 63.4149 170.841 63.9093 170.133 64.2653C169.425 64.6176 168.597 64.7937 167.65 64.7937C166.699 64.7937 165.87 64.6176 165.161 64.2653C164.453 63.9093 163.904 63.4149 163.514 62.7824C163.123 62.1498 162.928 61.4168 162.928 60.5835V52.9812H165.036V60.4074C165.036 60.8922 165.142 61.324 165.354 61.7028C165.57 62.0816 165.873 62.379 166.264 62.5949C166.654 62.807 167.116 62.913 167.65 62.913C168.184 62.913 168.646 62.807 169.036 62.5949C169.43 62.379 169.733 62.0816 169.945 61.7028C170.158 61.324 170.264 60.8922 170.264 60.4074V52.9812Z" fill="#00D07D"/>
<path d="M174.663 64.6176V52.9812H179.026C179.92 52.9812 180.67 53.1365 181.276 53.4471C181.886 53.7577 182.346 54.1933 182.657 54.754C182.971 55.3108 183.129 55.9604 183.129 56.7028C183.129 57.449 182.97 58.0968 182.651 58.646C182.337 59.1915 181.873 59.6138 181.259 59.913C180.646 60.2085 179.892 60.3562 178.998 60.3562H175.89V58.6062H178.714C179.237 58.6062 179.665 58.5343 179.998 58.3903C180.331 58.2426 180.578 58.0286 180.737 57.7483C180.899 57.4642 180.981 57.1157 180.981 56.7028C180.981 56.2899 180.899 55.9377 180.737 55.646C180.574 55.3505 180.326 55.1271 179.992 54.9755C179.659 54.8202 179.229 54.7426 178.703 54.7426H176.771V64.6176H174.663ZM180.674 59.3449L183.555 64.6176H181.203L178.373 59.3449H180.674Z" fill="#00D07D"/>
<path d="M139.928 84.6176V72.9812H142.036V77.9074H147.428V72.9812H149.542V84.6176H147.428V79.6744H142.036V84.6176H139.928Z" fill="#00D07D"/>
<path d="M162.232 78.7994C162.232 80.0532 161.997 81.1271 161.528 82.021C161.062 82.9112 160.426 83.593 159.619 84.0665C158.816 84.5399 157.905 84.7767 156.886 84.7767C155.867 84.7767 154.954 84.5399 154.147 84.0665C153.344 83.5892 152.708 82.9055 152.238 82.0153C151.772 81.1214 151.539 80.0494 151.539 78.7994C151.539 77.5456 151.772 76.4737 152.238 75.5835C152.708 74.6896 153.344 74.0058 154.147 73.5324C154.954 73.0589 155.867 72.8221 156.886 72.8221C157.905 72.8221 158.816 73.0589 159.619 73.5324C160.426 74.0058 161.062 74.6896 161.528 75.5835C161.997 76.4737 162.232 77.5456 162.232 78.7994ZM160.113 78.7994C160.113 77.9168 159.975 77.1725 159.698 76.5665C159.426 75.9566 159.047 75.4964 158.562 75.1858C158.077 74.8714 157.518 74.7142 156.886 74.7142C156.253 74.7142 155.694 74.8714 155.21 75.1858C154.725 75.4964 154.344 75.9566 154.068 76.5665C153.795 77.1725 153.658 77.9168 153.658 78.7994C153.658 79.682 153.795 80.4282 154.068 81.038C154.344 81.6441 154.725 82.1043 155.21 82.4187C155.694 82.7293 156.253 82.8846 156.886 82.8846C157.518 82.8846 158.077 82.7293 158.562 82.4187C159.047 82.1043 159.426 81.6441 159.698 81.038C159.975 80.4282 160.113 79.682 160.113 78.7994Z" fill="#00D07D"/>
<path d="M164.225 84.6176V72.9812H168.68C169.521 72.9812 170.22 73.1138 170.776 73.379C171.337 73.6403 171.756 73.9983 172.032 74.4528C172.312 74.9074 172.453 75.4225 172.453 75.9983C172.453 76.4718 172.362 76.8771 172.18 77.2142C171.998 77.5475 171.754 77.8183 171.447 78.0267C171.14 78.235 170.797 78.3846 170.418 78.4755V78.5892C170.831 78.6119 171.227 78.7388 171.606 78.9699C171.988 79.1971 172.301 79.5191 172.543 79.9358C172.786 80.3524 172.907 80.8562 172.907 81.4471C172.907 82.0494 172.761 82.5911 172.47 83.0721C172.178 83.5494 171.738 83.9263 171.151 84.2028C170.564 84.4793 169.826 84.6176 168.935 84.6176H164.225ZM166.333 82.8562H168.6C169.365 82.8562 169.917 82.7104 170.254 82.4187C170.595 82.1233 170.765 81.7445 170.765 81.2824C170.765 80.9377 170.68 80.6271 170.509 80.3505C170.339 80.0702 170.096 79.8505 169.782 79.6915C169.468 79.5286 169.093 79.4471 168.657 79.4471H166.333V82.8562ZM166.333 77.9301H168.418C168.782 77.9301 169.11 77.8638 169.401 77.7312C169.693 77.5949 169.922 77.4036 170.089 77.1574C170.259 76.9074 170.345 76.6119 170.345 76.271C170.345 75.8202 170.185 75.449 169.867 75.1574C169.553 74.8657 169.085 74.7199 168.464 74.7199H166.333V77.9301Z" fill="#00D07D"/>
<path d="M174.741 84.6176V72.9812H179.195C180.036 72.9812 180.735 73.1138 181.292 73.379C181.853 73.6403 182.271 73.9983 182.548 74.4528C182.828 74.9074 182.968 75.4225 182.968 75.9983C182.968 76.4718 182.877 76.8771 182.695 77.2142C182.514 77.5475 182.269 77.8183 181.962 78.0267C181.656 78.235 181.313 78.3846 180.934 78.4755V78.5892C181.347 78.6119 181.743 78.7388 182.122 78.9699C182.504 79.1971 182.817 79.5191 183.059 79.9358C183.301 80.3524 183.423 80.8562 183.423 81.4471C183.423 82.0494 183.277 82.5911 182.985 83.0721C182.694 83.5494 182.254 83.9263 181.667 84.2028C181.08 84.4793 180.341 84.6176 179.451 84.6176H174.741ZM176.849 82.8562H179.116C179.881 82.8562 180.432 82.7104 180.769 82.4187C181.11 82.1233 181.281 81.7445 181.281 81.2824C181.281 80.9377 181.195 80.6271 181.025 80.3505C180.854 80.0702 180.612 79.8505 180.298 79.6915C179.983 79.5286 179.608 79.4471 179.173 79.4471H176.849V82.8562ZM176.849 77.9301H178.934C179.298 77.9301 179.625 77.8638 179.917 77.7312C180.209 77.5949 180.438 77.4036 180.604 77.1574C180.775 76.9074 180.86 76.6119 180.86 76.271C180.86 75.8202 180.701 75.449 180.383 75.1574C180.069 74.8657 179.601 74.7199 178.979 74.7199H176.849V77.9301Z" fill="#00D07D"/>
<path d="M187.364 72.9812V84.6176H185.256V72.9812H187.364Z" fill="#00D07D"/>
<path d="M189.647 84.6176V72.9812H197.215V74.7483H191.755V77.9074H196.823V79.6744H191.755V82.8505H197.261V84.6176H189.647Z" fill="#00D07D"/>
<path d="M205.69 76.1801C205.637 75.6839 205.413 75.2975 205.019 75.021C204.629 74.7445 204.122 74.6062 203.497 74.6062C203.057 74.6062 202.68 74.6725 202.366 74.8051C202.051 74.9377 201.811 75.1176 201.644 75.3449C201.478 75.5721 201.392 75.8316 201.389 76.1233C201.389 76.3657 201.444 76.5759 201.553 76.754C201.667 76.932 201.82 77.0835 202.014 77.2085C202.207 77.3297 202.421 77.432 202.656 77.5153C202.89 77.5987 203.127 77.6687 203.366 77.7255L204.457 77.9983C204.896 78.1005 205.319 78.2388 205.724 78.413C206.133 78.5873 206.498 78.807 206.82 79.0721C207.146 79.3373 207.404 79.6574 207.593 80.0324C207.783 80.4074 207.877 80.8468 207.877 81.3505C207.877 82.0324 207.703 82.6327 207.354 83.1517C207.006 83.6668 206.502 84.0702 205.843 84.3619C205.188 84.6498 204.394 84.7937 203.462 84.7937C202.557 84.7937 201.771 84.6536 201.104 84.3733C200.442 84.093 199.923 83.6839 199.548 83.146C199.176 82.6081 198.976 81.9528 198.945 81.1801H201.019C201.05 81.5854 201.175 81.9225 201.394 82.1915C201.614 82.4604 201.9 82.6612 202.252 82.7937C202.608 82.9263 203.006 82.9926 203.445 82.9926C203.904 82.9926 204.305 82.9244 204.65 82.788C204.998 82.6479 205.271 82.4547 205.468 82.2085C205.665 81.9585 205.765 81.6668 205.769 81.3335C205.765 81.0305 205.676 80.7805 205.502 80.5835C205.328 80.3827 205.084 80.2161 204.769 80.0835C204.459 79.9471 204.095 79.8259 203.678 79.7199L202.354 79.379C201.396 79.1327 200.639 78.7596 200.082 78.2596C199.529 77.7558 199.252 77.0873 199.252 76.254C199.252 75.5683 199.438 74.968 199.809 74.4528C200.184 73.9377 200.694 73.538 201.337 73.254C201.981 72.9661 202.711 72.8221 203.525 72.8221C204.351 72.8221 205.074 72.9661 205.695 73.254C206.32 73.538 206.811 73.9339 207.167 74.4415C207.523 74.9452 207.707 75.5248 207.718 76.1801H205.69Z" fill="#00D07D"/>
<path d="M210.933 84.7426C210.588 84.7426 210.292 84.6214 210.046 84.379C209.8 84.1365 209.679 83.8411 209.683 83.4926C209.679 83.1517 209.8 82.86 210.046 82.6176C210.292 82.3752 210.588 82.254 210.933 82.254C211.266 82.254 211.556 82.3752 211.802 82.6176C212.052 82.86 212.179 83.1517 212.183 83.4926C212.179 83.7237 212.118 83.9339 212.001 84.1233C211.887 84.3127 211.736 84.4642 211.546 84.5778C211.361 84.6877 211.156 84.7426 210.933 84.7426Z" fill="#00D07D"/>
<defs>
<clipPath id="clip0_45_311">
<rect width="126" height="85" fill="white"/>
</clipPath>
</defs>
</svg>
